<svg width="20" height="22" viewBox="0 0 20 22" fill="none" xmlns="http://www.w3.org/2000/svg">
<path fill-rule="evenodd" clip-rule="evenodd" d="M4.4 15.4C4.4 14.795 4.895 14.3 5.5 14.3C6.105 14.3 6.6 14.795 6.6 15.4C6.6 16.005 6.105 16.5 5.5 16.5C4.895 16.5 4.4 16.005 4.4 15.4ZM9.9 14.3H14.3C14.905 14.3 15.4 14.795 15.4 15.4C15.4 16.005 14.905 16.5 14.3 16.5H9.9C9.295 16.5 8.8 16.005 8.8 15.4C8.8 14.795 9.295 14.3 9.9 14.3ZM16.5 19.8H3.3C2.6939 19.8 2.2 19.3061 2.2 18.7V12.1H17.6V18.7C17.6 19.3061 17.1061 19.8 16.5 19.8ZM3.3 4.4H4.4V5.5C4.4 6.105 4.895 6.6 5.5 6.6C6.105 6.6 6.6 6.105 6.6 5.5V4.4H13.2V5.5C13.2 6.105 13.695 6.6 14.3 6.6C14.905 6.6 15.4 6.105 15.4 5.5V4.4H16.5C17.1061 4.4 17.6 4.8939 17.6 5.5V9.9H2.2V5.5C2.2 4.8939 2.6939 4.4 3.3 4.4ZM16.5 2.2H15.4V1.1C15.4 0.495 14.905 0 14.3 0C13.695 0 13.2 0.495 13.2 1.1V2.2H6.6V1.1C6.6 0.495 6.105 0 5.5 0C4.895 0 4.4 0.495 4.4 1.1V2.2H3.3C1.4806 2.2 0 3.6806 0 5.5V18.7C0 20.5194 1.4806 22 3.3 22H16.5C18.3194 22 19.8 20.5194 19.8 18.7V5.5C19.8 3.6806 18.3194 2.2 16.5 2.2Z" fill="#222B45"/>
</svg>
